<svg xmlns="http://www.w3.org/2000/svg" width="20" height="20" viewBox="0 0 20 20" fill="none">
  <path d="M9.78 0.720091C9.63783 0.587611 9.44978 0.515487 9.25548 0.518916C9.06118 0.522344 8.87579 0.601056 8.73838 0.738469C8.60097 0.875882 8.52226 1.06127 8.51883 1.25557C8.5154 1.44987 8.58752 1.63792 8.72 1.78009L9.94 3.00009H9.5C8.01664 3.00009 6.5666 3.43996 5.33323 4.26407C4.09986 5.08818 3.13856 6.25952 2.57091 7.62996C2.00325 9.00041 1.85472 10.5084 2.14411 11.9633C2.4335 13.4181 3.14781 14.7545 4.1967 15.8034C5.2456 16.8523 6.58197 17.5666 8.03683 17.856C9.49168 18.1454 10.9997 17.9968 12.3701 17.4292C13.7406 16.8615 14.9119 15.9002 15.736 14.6669C16.5601 13.4335 17 11.9835 17 10.5001C17 10.3012 16.921 10.1104 16.7803 9.96976C16.6397 9.82911 16.4489 9.75009 16.25 9.75009C16.0511 9.75009 15.8603 9.82911 15.7197 9.96976C15.579 10.1104 15.5 10.3012 15.5 10.5001C15.4999 11.6842 15.1495 12.8418 14.4929 13.8271C13.8363 14.8124 12.9028 15.5814 11.81 16.0373C10.7172 16.4932 9.51391 16.6155 8.35172 16.3889C7.18953 16.1623 6.12037 15.5968 5.27887 14.7638C4.43738 13.9308 3.86118 12.8674 3.62282 11.7076C3.38447 10.5477 3.49462 9.34331 3.93941 8.24594C4.38419 7.14858 5.14373 6.20736 6.12237 5.54079C7.101 4.87423 8.25499 4.51213 9.439 4.50009L8.719 5.22009C8.58245 5.36161 8.50694 5.55109 8.50874 5.74774C8.51054 5.94439 8.58951 6.13246 8.72863 6.27145C8.86775 6.41044 9.0559 6.48923 9.25255 6.49085C9.4492 6.49246 9.63862 6.41678 9.78 6.28009L12.03 4.03009C12.1705 3.88947 12.2493 3.69884 12.2493 3.50009C12.2493 3.30134 12.1705 3.11072 12.03 2.97009L9.78 0.720091ZM13.52 6.96009C13.6631 7.09805 13.7456 7.28719 13.7494 7.48595C13.7531 7.68471 13.6778 7.87683 13.54 8.02009L9.69 12.0201C9.62004 12.0927 9.53616 12.1504 9.44338 12.1898C9.3506 12.2293 9.25082 12.2496 9.15 12.2496C9.04919 12.2496 8.94941 12.2293 8.85663 12.1898C8.76385 12.1504 8.67997 12.0927 8.61 12.0201L6.96 10.3061C6.88826 10.2359 6.83133 10.152 6.79259 10.0594C6.75386 9.96682 6.7341 9.86739 6.7345 9.76702C6.7349 9.66664 6.75544 9.56737 6.7949 9.47508C6.83437 9.38279 6.89196 9.29937 6.96426 9.22974C7.03656 9.16012 7.1221 9.10572 7.21582 9.06976C7.30953 9.0338 7.4095 9.01702 7.50982 9.02041C7.61014 9.0238 7.70875 9.04729 7.79982 9.08949C7.89089 9.13169 7.97257 9.19175 8.04 9.26609L9.15 10.4181L12.46 6.98009C12.598 6.83695 12.7871 6.75445 12.9859 6.7507C13.1846 6.74694 13.3767 6.82226 13.52 6.96009Z" fill="#1570EF"/>
</svg>