<svg width="24" height="24" viewBox="0 0 24 24" fill="none" xmlns="http://www.w3.org/2000/svg">
<g id="gridicons:create">
<path id="Vector" d="M10.2987 3.21878C10.147 3.07479 9.94643 2.9964 9.73918 3.00013C9.53192 3.00385 9.33418 3.0894 9.18761 3.23875C9.04103 3.38811 8.95707 3.5896 8.95342 3.80078C8.94976 4.01196 9.02669 4.21634 9.168 4.37087L10.4693 5.69686H10C8.41775 5.69686 6.87103 6.17494 5.55544 7.07064C4.23985 7.96635 3.21447 9.23945 2.60897 10.729C2.00347 12.2185 1.84504 13.8575 2.15372 15.4387C2.4624 17.02 3.22433 18.4724 4.34315 19.6125C5.46197 20.7525 6.88743 21.5288 8.43928 21.8434C9.99113 22.1579 11.5997 21.9965 13.0615 21.3795C14.5233 20.7625 15.7727 19.7177 16.6518 18.3772C17.5308 17.0367 18 15.4607 18 13.8484C18 13.6322 17.9157 13.4249 17.7657 13.272C17.6157 13.1192 17.4122 13.0333 17.2 13.0333C16.9878 13.0333 16.7843 13.1192 16.6343 13.272C16.4843 13.4249 16.4 13.6322 16.4 13.8484C16.3999 15.1354 16.0262 16.3935 15.3258 17.4645C14.6254 18.5354 13.6296 19.3712 12.464 19.8667C11.2983 20.3621 10.0148 20.4951 8.77516 20.2488C7.53549 20.0025 6.39506 19.388 5.49747 18.4826C4.59987 17.5772 3.98526 16.4214 3.73101 15.1608C3.47677 13.9002 3.59426 12.5911 4.0687 11.3984C4.54314 10.2058 5.35331 9.18276 6.39719 8.45828C7.44107 7.73381 8.67199 7.34025 9.93494 7.32717L9.16694 8.10972C9.02128 8.26353 8.94074 8.46948 8.94266 8.68321C8.94458 8.89694 9.02881 9.10136 9.17721 9.25242C9.3256 9.40349 9.52629 9.48912 9.73605 9.49088C9.94581 9.49263 10.1479 9.41037 10.2987 9.26181L12.6987 6.81634C12.8485 6.6635 12.9326 6.45631 12.9326 6.24029C12.9326 6.02428 12.8485 5.81709 12.6987 5.66425L10.2987 3.21878ZM14.288 10.0009C14.4407 10.1508 14.5287 10.3564 14.5327 10.5724C14.5367 10.7885 14.4564 10.9973 14.3093 11.153L10.2027 15.5005C10.128 15.5794 10.0386 15.6421 9.9396 15.685C9.84064 15.7278 9.7342 15.7499 9.62667 15.7499C9.51913 15.7499 9.4127 15.7278 9.31373 15.685C9.21477 15.6421 9.1253 15.5794 9.05067 15.5005L7.29067 13.6376C7.21414 13.5613 7.15341 13.4701 7.1121 13.3695C7.07078 13.2688 7.04971 13.1608 7.05013 13.0517C7.05055 12.9426 7.07246 12.8347 7.11456 12.7344C7.15666 12.6341 7.21809 12.5434 7.29521 12.4677C7.37233 12.392 7.46358 12.3329 7.56354 12.2938C7.6635 12.2548 7.77014 12.2365 7.87714 12.2402C7.98414 12.2439 8.08933 12.2694 8.18648 12.3153C8.28362 12.3611 8.37074 12.4264 8.44267 12.5072L9.62667 13.7593L13.1573 10.0226C13.3045 9.86705 13.5062 9.77737 13.7183 9.7733C13.9303 9.76922 14.1352 9.85108 14.288 10.0009Z" fill="#5D6679"/>
</g>
</svg>
