<svg width="18" height="18" viewBox="0 0 18 18" fill="none" xmlns="http://www.w3.org/2000/svg">
<g id="Group 1168">
<path id="Vector" d="M17.82 9H16.56C16.461 9 16.38 9.081 16.38 9.18V16.38H1.62V1.62H8.82C8.919 1.62 9 1.539 9 1.44V0.18C9 0.081 8.919 0 8.82 0H0.72C0.32175 0 0 0.32175 0 0.72V17.28C0 17.6783 0.32175 18 0.72 18H17.28C17.6783 18 18 17.6783 18 17.28V9.18C18 9.081 17.919 9 17.82 9Z" fill="#5D6679"/>
<path id="Vector_2" d="M5.48784 9.51525L5.44509 12.1905C5.44284 12.3907 5.60484 12.555 5.80509 12.555H5.81409L8.46909 12.4897C8.51409 12.4875 8.55909 12.4695 8.59059 12.438L17.9483 3.1005C18.0181 3.03075 18.0181 2.916 17.9483 2.84625L15.1516 0.0517501C15.1156 0.0157501 15.0706 0 15.0233 0C14.9761 0 14.9311 0.0180001 14.8951 0.0517501L5.53959 9.38925C5.50709 9.42324 5.48861 9.46823 5.48784 9.51525ZM6.91659 10.0463L15.0233 1.9575L16.0403 2.97225L7.92909 11.0655L6.90084 11.0903L6.91659 10.0463Z" fill="#5D6679"/>
</g>
</svg>
