<svg xmlns="http://www.w3.org/2000/svg" width="22" height="22" viewBox="0 0 22 22" fill="none">
  <path d="M16.526 5.116L13.347 0.658997L1.658 9.997L1.01 9.99V10H0.5V22H21.5V10H20.538L18.624 4.401L16.526 5.116ZM18.425 10H8.397L15.866 7.454L17.388 6.967L18.425 10ZM14.55 5.79L6.84 8.418L12.946 3.54L14.55 5.79ZM2.5 18.169V13.829C2.9219 13.6795 3.30511 13.4377 3.6217 13.1213C3.93828 12.8049 4.18027 12.4218 4.33 12H17.67C17.8197 12.422 18.0616 12.8052 18.3782 13.1218C18.6948 13.4384 19.078 13.6803 19.5 13.83V18.17C19.078 18.3197 18.6948 18.5616 18.3782 18.8782C18.0616 19.1948 17.8197 19.578 17.67 20H4.332C4.18218 19.5777 3.93996 19.1941 3.62302 18.8774C3.30607 18.5606 2.9224 18.3186 2.5 18.169Z" fill="#1570EF"/>
</svg>