<svg xmlns="http://www.w3.org/2000/svg" width="14" height="16" viewBox="0 0 14 16" fill="none">
  <path d="M2.04167 0C1.50018 0 0.980877 0.245833 0.59799 0.683418C0.215104 1.121 0 1.71449 0 2.33333V12.6667C0 13.5507 0.307291 14.3986 0.854272 15.0237C1.40125 15.6488 2.14312 16 2.91667 16H11.0833C11.8569 16 12.5987 15.6488 13.1457 15.0237C13.6927 14.3986 14 13.5507 14 12.6667V10.6667H10.5V2.33333C10.5 1.71449 10.2849 1.121 9.90201 0.683418C9.51912 0.245833 8.99982 0 8.45833 0H2.04167ZM10.5 12H12.8333V12.6667C12.8333 13.1971 12.649 13.7058 12.3208 14.0809C11.9926 14.456 11.5475 14.6667 11.0833 14.6667H10.5V12ZM1.16667 2.33333C1.16667 2.06812 1.25885 1.81376 1.42295 1.62623C1.58704 1.43869 1.8096 1.33333 2.04167 1.33333H8.45833C8.6904 1.33333 8.91296 1.43869 9.07705 1.62623C9.24115 1.81376 9.33333 2.06812 9.33333 2.33333V14.6667H2.91667C2.45254 14.6667 2.00742 14.456 1.67923 14.0809C1.35104 13.7058 1.16667 13.1971 1.16667 12.6667V2.33333ZM2.91667 4.66667C2.91667 4.48986 2.97812 4.32029 3.08752 4.19526C3.19692 4.07024 3.34529 4 3.5 4H7C7.15471 4 7.30308 4.07024 7.41248 4.19526C7.52188 4.32029 7.58333 4.48986 7.58333 4.66667C7.58333 4.84348 7.52188 5.01305 7.41248 5.13807C7.30308 5.2631 7.15471 5.33333 7 5.33333H3.5C3.34529 5.33333 3.19692 5.2631 3.08752 5.13807C2.97812 5.01305 2.91667 4.84348 2.91667 4.66667ZM2.91667 8C2.91667 7.82319 2.97812 7.65362 3.08752 7.5286C3.19692 7.40357 3.34529 7.33333 3.5 7.33333H7C7.15471 7.33333 7.30308 7.40357 7.41248 7.5286C7.52188 7.65362 7.58333 7.82319 7.58333 8C7.58333 8.17681 7.52188 8.34638 7.41248 8.47141C7.30308 8.59643 7.15471 8.66667 7 8.66667H3.5C3.34529 8.66667 3.19692 8.59643 3.08752 8.47141C2.97812 8.34638 2.91667 8.17681 2.91667 8ZM3.5 10.6667C3.34529 10.6667 3.19692 10.7369 3.08752 10.8619C2.97812 10.987 2.91667 11.1565 2.91667 11.3333C2.91667 11.5101 2.97812 11.6797 3.08752 11.8047C3.19692 11.9298 3.34529 12 3.5 12H5.25C5.40471 12 5.55308 11.9298 5.66248 11.8047C5.77187 11.6797 5.83333 11.5101 5.83333 11.3333C5.83333 11.1565 5.77187 10.987 5.66248 10.8619C5.55308 10.7369 5.40471 10.6667 5.25 10.6667H3.5Z" fill="#1570EF"/>
</svg>