<svg width="16" height="16" viewBox="0 0 16 16" fill="none" xmlns="http://www.w3.org/2000/svg">
<g id="fluent:receipt-16-regular">
<path id="Vector" d="M4.04167 0C3.50018 0 2.98088 0.245833 2.59799 0.683418C2.2151 1.121 2 1.71449 2 2.33333V12.6667C2 13.5507 2.30729 14.3986 2.85427 15.0237C3.40125 15.6488 4.14312 16 4.91667 16H13.0833C13.8569 16 14.5987 15.6488 15.1457 15.0237C15.6927 14.3986 16 13.5507 16 12.6667V10.6667H12.5V2.33333C12.5 1.71449 12.2849 1.121 11.902 0.683418C11.5191 0.245833 10.9998 0 10.4583 0H4.04167ZM12.5 12H14.8333V12.6667C14.8333 13.1971 14.649 13.7058 14.3208 14.0809C13.9926 14.456 13.5475 14.6667 13.0833 14.6667H12.5V12ZM3.16667 2.33333C3.16667 2.06812 3.25885 1.81376 3.42295 1.62623C3.58704 1.43869 3.8096 1.33333 4.04167 1.33333H10.4583C10.6904 1.33333 10.913 1.43869 11.0771 1.62623C11.2411 1.81376 11.3333 2.06812 11.3333 2.33333V14.6667H4.91667C4.45254 14.6667 4.00742 14.456 3.67923 14.0809C3.35104 13.7058 3.16667 13.1971 3.16667 12.6667V2.33333ZM4.91667 4.66667C4.91667 4.48986 4.97812 4.32029 5.08752 4.19526C5.19692 4.07024 5.34529 4 5.5 4H9C9.15471 4 9.30308 4.07024 9.41248 4.19526C9.52187 4.32029 9.58333 4.48986 9.58333 4.66667C9.58333 4.84348 9.52187 5.01305 9.41248 5.13807C9.30308 5.2631 9.15471 5.33333 9 5.33333H5.5C5.34529 5.33333 5.19692 5.2631 5.08752 5.13807C4.97812 5.01305 4.91667 4.84348 4.91667 4.66667ZM4.91667 8C4.91667 7.82319 4.97812 7.65362 5.08752 7.5286C5.19692 7.40357 5.34529 7.33333 5.5 7.33333H9C9.15471 7.33333 9.30308 7.40357 9.41248 7.5286C9.52187 7.65362 9.58333 7.82319 9.58333 8C9.58333 8.17681 9.52187 8.34638 9.41248 8.47141C9.30308 8.59643 9.15471 8.66667 9 8.66667H5.5C5.34529 8.66667 5.19692 8.59643 5.08752 8.47141C4.97812 8.34638 4.91667 8.17681 4.91667 8ZM5.5 10.6667C5.34529 10.6667 5.19692 10.7369 5.08752 10.8619C4.97812 10.987 4.91667 11.1565 4.91667 11.3333C4.91667 11.5101 4.97812 11.6797 5.08752 11.8047C5.19692 11.9298 5.34529 12 5.5 12H7.25C7.40471 12 7.55308 11.9298 7.66248 11.8047C7.77187 11.6797 7.83333 11.5101 7.83333 11.3333C7.83333 11.1565 7.77187 10.987 7.66248 10.8619C7.55308 10.7369 7.40471 10.6667 7.25 10.6667H5.5Z" fill="#5D6679"/>
</g>
</svg>
